<svg role="img" viewBox="0 0 24 24" xmlns="http://www.w3.org/2000/svg">
  <title>GPT-4</title>
  <g fill="none" stroke="#10A37F" stroke-linecap="round" stroke-linejoin="round" stroke-width="1.65">
    <path d="M12 2.9a3.2 3.2 0 0 1 3.2 3.2v1.15l1-.58a3.2 3.2 0 1 1 3.2 5.54l-1 .58 1 .58a3.2 3.2 0 1 1-3.2 5.54l-1-.58v1.15a3.2 3.2 0 1 1-6.4 0v-1.15l-1 .58a3.2 3.2 0 1 1-3.2-5.54l1-.58-1-.58a3.2 3.2 0 1 1 3.2-5.54l1 .58V6.1A3.2 3.2 0 0 1 12 2.9Z"/>
    <circle cx="12" cy="12" r="2.3" fill="#10A37F" fill-opacity="0.18"/>
  </g>
</svg>
